<?xml version="1.0"?>
<svg xmlns="http://www.w3.org/2000/svg" xmlns:xlink="http://www.w3.org/1999/xlink" xmlns:svgjs="http://svgjs.com/svgjs" version="1.1" width="512" height="512" x="0" y="0" viewBox="0 0 512 512" style="enable-background:new 0 0 512 512" xml:space="preserve" class=""><g><g xmlns="http://www.w3.org/2000/svg"><g><g fill="#56788b"><path d="m176.423 38.344-21.059-21.025c-1.391-1.469-3.348-2.345-5.448-2.345h-112.416c-4.142 0-7.5 3.358-7.5 7.5s3.358 7.5 7.5 7.5h109.31l16.814 16.788.002 136.89c0 4.142 3.358 7.5 7.5 7.5s7.5-3.358 7.5-7.5l-.002-140c0-1.992-.792-3.902-2.201-5.308z" fill="#56788b" data-original="#56788b" style="" class=""/><path d="m340.874 191.151c4.142 0 7.5-3.358 7.5-7.5l.002-136.89 16.814-16.788h109.31c4.142 0 7.5-3.358 7.5-7.5s-3.358-7.5-7.5-7.5h-112.417c-2.086 0-4.03.864-5.418 2.315l-21.088 21.055c-1.409 1.407-2.201 3.316-2.201 5.308l-.002 140c0 4.142 3.358 7.5 7.5 7.5z" fill="#56788b" data-original="#56788b" style="" class=""/><path d="m256 29.947c-4.142 0-7.5 3.358-7.5 7.5v106.204c0 4.142 3.358 7.5 7.5 7.5s7.5-3.358 7.5-7.5v-106.204c0-4.142-3.358-7.5-7.5-7.5z" fill="#56788b" data-original="#56788b" style="" class=""/><path d="m171.126 320.849c-4.142 0-7.5 3.358-7.5 7.5l-.002 136.89-16.814 16.788h-109.31c-4.142 0-7.5 3.358-7.5 7.5s3.358 7.5 7.5 7.5h112.417c2.086 0 4.03-.864 5.418-2.315l21.088-21.055c1.409-1.407 2.201-3.316 2.201-5.308l.002-140c0-4.142-3.358-7.5-7.5-7.5z" fill="#56788b" data-original="#56788b" style="" class=""/><path d="m474.5 482.026h-109.31l-16.814-16.788-.002-136.89c0-4.142-3.358-7.5-7.5-7.5s-7.5 3.358-7.5 7.5l.002 140c0 1.991.792 3.901 2.201 5.308l21.059 21.025c1.391 1.469 3.348 2.345 5.448 2.345h112.416c4.142 0 7.5-3.358 7.5-7.5s-3.358-7.5-7.5-7.5z" fill="#56788b" data-original="#56788b" style="" class=""/><path d="m256 360.849c-4.142 0-7.5 3.358-7.5 7.5v106.204c0 4.142 3.358 7.5 7.5 7.5s7.5-3.358 7.5-7.5v-106.204c0-4.142-3.358-7.5-7.5-7.5z" fill="#56788b" data-original="#56788b" style="" class=""/></g><g fill="#00cec8"><path d="m182.14 236.531c0-14.871-12.098-26.969-26.969-26.969h-19.469c-4.142 0-7.5 3.358-7.5 7.5v77.875c0 4.142 3.358 7.5 7.5 7.5h19.469c14.871 0 26.969-12.098 26.969-26.969 0-7.645-3.197-14.556-8.325-19.469 5.128-4.911 8.325-11.823 8.325-19.468zm-15 38.938c0 6.6-5.369 11.969-11.969 11.969h-11.969v-23.938h11.969c6.6 0 11.969 5.369 11.969 11.969zm-23.938-26.969v-23.938h11.969c6.6 0 11.969 5.369 11.969 11.969s-5.369 11.969-11.969 11.969z" fill="#20bd67" data-original="#00cec8" style="" class=""/><path d="m372.801 263.5c4.142 0 7.5-3.358 7.5-7.5s-3.358-7.5-7.5-7.5h-26.765v-23.938h26.765c4.142 0 7.5-3.358 7.5-7.5s-3.358-7.5-7.5-7.5h-34.265c-4.142 0-7.5 3.358-7.5 7.5v77.875c0 4.142 3.358 7.5 7.5 7.5h34.265c4.142 0 7.5-3.358 7.5-7.5s-3.358-7.5-7.5-7.5h-26.765v-23.937z" fill="#20bd67" data-original="#00cec8" style="" class=""/><path d="m242.917 209.563c-4.142 0-7.5 3.358-7.5 7.5v27.256c0 6.6-5.369 11.969-11.969 11.969s-11.969-5.369-11.969-11.969v-27.256c0-4.142-3.358-7.5-7.5-7.5s-7.5 3.358-7.5 7.5v27.256c0 12.269 8.236 22.65 19.469 25.907v24.711c0 4.142 3.358 7.5 7.5 7.5s7.5-3.358 7.5-7.5v-24.711c11.233-3.257 19.469-13.638 19.469-25.907v-27.256c0-4.143-3.357-7.5-7.5-7.5z" fill="#20bd67" data-original="#00cec8" style="" class=""/><path d="m310.218 209.563h-38.938c-4.142 0-7.5 3.358-7.5 7.5s3.358 7.5 7.5 7.5h11.969v70.375c0 4.142 3.358 7.5 7.5 7.5s7.5-3.358 7.5-7.5v-70.375h11.969c4.142 0 7.5-3.358 7.5-7.5s-3.358-7.5-7.5-7.5z" fill="#20bd67" data-original="#00cec8" style="" class=""/></g><g><g fill="#ff4656"><path d="m37.5 0h-30c-4.142 0-7.5 3.358-7.5 7.5v29.947c0 4.142 3.358 7.5 7.5 7.5h30c4.142 0 7.5-3.358 7.5-7.5v-29.947c0-4.142-3.358-7.5-7.5-7.5z" fill="#ff4656" data-original="#ff4656" style="" class=""/><path d="m504.5 0h-30c-4.142 0-7.5 3.358-7.5 7.5v29.947c0 4.142 3.358 7.5 7.5 7.5h30c4.142 0 7.5-3.358 7.5-7.5v-29.947c0-4.142-3.358-7.5-7.5-7.5z" fill="#ff4656" data-original="#ff4656" style="" class=""/><path d="m37.5 467.053h-30c-4.142 0-7.5 3.358-7.5 7.5v29.947c0 4.142 3.358 7.5 7.5 7.5h30c4.142 0 7.5-3.358 7.5-7.5v-29.947c0-4.142-3.358-7.5-7.5-7.5z" fill="#ff4656" data-original="#ff4656" style="" class=""/><path d="m504.5 467.053h-30c-4.142 0-7.5 3.358-7.5 7.5v29.947c0 4.142 3.358 7.5 7.5 7.5h30c4.142 0 7.5-3.358 7.5-7.5v-29.947c0-4.142-3.358-7.5-7.5-7.5z" fill="#ff4656" data-original="#ff4656" style="" class=""/></g><g fill="#00cec8"><path d="m271 0h-30c-4.142 0-7.5 3.358-7.5 7.5v29.947c0 4.142 3.358 7.5 7.5 7.5h30c4.142 0 7.5-3.358 7.5-7.5v-29.947c0-4.142-3.358-7.5-7.5-7.5z" fill="#20bd67" data-original="#00cec8" style="" class=""/><path d="m271 467.053h-30c-4.142 0-7.5 3.358-7.5 7.5v29.947c0 4.142 3.358 7.5 7.5 7.5h30c4.142 0 7.5-3.358 7.5-7.5v-29.947c0-4.142-3.358-7.5-7.5-7.5z" fill="#20bd67" data-original="#00cec8" style="" class=""/></g></g></g><g><g fill="#99e7fa"><path d="m7.5 152.64c4.142 0 7.5-3.358 7.5-7.5v-51.886c0-4.142-3.358-7.5-7.5-7.5s-7.5 3.358-7.5 7.5v51.886c0 4.142 3.358 7.5 7.5 7.5z" fill="#58f19d" data-original="#99e7fa" style="" class=""/><path d="m67.528 85.754h-30.014c-4.142 0-7.5 3.358-7.5 7.5v51.886c0 4.142 3.358 7.5 7.5 7.5h30.014c4.142 0 7.5-3.358 7.5-7.5v-51.886c0-4.142-3.358-7.5-7.5-7.5zm-7.5 51.886h-15.014v-36.886h15.014z" fill="#58f19d" data-original="#99e7fa" style="" class=""/><path d="m97.542 85.754c-4.142 0-7.5 3.358-7.5 7.5v51.886c0 4.142 3.358 7.5 7.5 7.5s7.5-3.358 7.5-7.5v-51.886c0-4.142-3.358-7.5-7.5-7.5z" fill="#58f19d" data-original="#99e7fa" style="" class=""/><path d="m127.556 85.754c-4.142 0-7.5 3.358-7.5 7.5v51.886c0 4.142 3.358 7.5 7.5 7.5s7.5-3.358 7.5-7.5v-51.886c0-4.142-3.358-7.5-7.5-7.5z" fill="#58f19d" data-original="#99e7fa" style="" class=""/><path d="m7.5 359.359c-4.142 0-7.5 3.358-7.5 7.5v51.886c0 4.142 3.358 7.5 7.5 7.5s7.5-3.358 7.5-7.5v-51.886c0-4.142-3.358-7.5-7.5-7.5z" fill="#58f19d" data-original="#99e7fa" style="" class=""/><path d="m67.528 359.359h-30.014c-4.142 0-7.5 3.358-7.5 7.5v51.886c0 4.142 3.358 7.5 7.5 7.5h30.014c4.142 0 7.5-3.358 7.5-7.5v-51.886c0-4.142-3.358-7.5-7.5-7.5zm-7.5 51.887h-15.014v-36.886h15.014z" fill="#58f19d" data-original="#99e7fa" style="" class=""/><path d="m97.542 359.359c-4.142 0-7.5 3.358-7.5 7.5v51.886c0 4.142 3.358 7.5 7.5 7.5s7.5-3.358 7.5-7.5v-51.886c0-4.142-3.358-7.5-7.5-7.5z" fill="#58f19d" data-original="#99e7fa" style="" class=""/><path d="m127.556 359.359c-4.142 0-7.5 3.358-7.5 7.5v51.886c0 4.142 3.358 7.5 7.5 7.5s7.5-3.358 7.5-7.5v-51.886c0-4.142-3.358-7.5-7.5-7.5z" fill="#58f19d" data-original="#99e7fa" style="" class=""/></g><path d="m67.528 223.057c-4.142 0-7.5 3.358-7.5 7.5v51.886c0 4.142 3.358 7.5 7.5 7.5s7.5-3.358 7.5-7.5v-51.886c0-4.142-3.358-7.5-7.5-7.5z" fill="#71e9a7" data-original="#4dd4f7" style="" class=""/><path d="m7.5 289.942h30.014c4.142 0 7.5-3.358 7.5-7.5v-51.886c0-4.142-3.358-7.5-7.5-7.5h-30.014c-4.142 0-7.5 3.358-7.5 7.5v51.886c0 4.142 3.358 7.5 7.5 7.5zm7.5-51.885h15.014v36.886h-15.014z" fill="#71e9a7" data-original="#4dd4f7" style="" class=""/><path d="m504.5 85.754c-4.142 0-7.5 3.358-7.5 7.5v51.886c0 4.142 3.358 7.5 7.5 7.5s7.5-3.358 7.5-7.5v-51.886c0-4.142-3.358-7.5-7.5-7.5z" fill="#58f19d" data-original="#99e7fa" style="" class=""/><path d="m444.472 152.64h30.014c4.142 0 7.5-3.358 7.5-7.5v-51.886c0-4.142-3.358-7.5-7.5-7.5h-30.014c-4.142 0-7.5 3.358-7.5 7.5v51.886c0 4.142 3.358 7.5 7.5 7.5zm7.5-51.886h15.014v36.886h-15.014z" fill="#58f19d" data-original="#99e7fa" style="" class=""/><path d="m414.458 85.754c-4.142 0-7.5 3.358-7.5 7.5v51.886c0 4.142 3.358 7.5 7.5 7.5s7.5-3.358 7.5-7.5v-51.886c0-4.142-3.357-7.5-7.5-7.5z" fill="#58f19d" data-original="#99e7fa" style="" class=""/><path d="m384.444 85.754c-4.142 0-7.5 3.358-7.5 7.5v51.886c0 4.142 3.358 7.5 7.5 7.5s7.5-3.358 7.5-7.5v-51.886c0-4.142-3.358-7.5-7.5-7.5z" fill="#58f19d" data-original="#99e7fa" style="" class=""/><path d="m504.5 359.359c-4.142 0-7.5 3.358-7.5 7.5v51.886c0 4.142 3.358 7.5 7.5 7.5s7.5-3.358 7.5-7.5v-51.886c0-4.142-3.358-7.5-7.5-7.5z" fill="#58f19d" data-original="#99e7fa" style="" class=""/><path d="m474.486 359.359h-30.014c-4.142 0-7.5 3.358-7.5 7.5v51.886c0 4.142 3.358 7.5 7.5 7.5h30.014c4.142 0 7.5-3.358 7.5-7.5v-51.886c0-4.142-3.358-7.5-7.5-7.5zm-7.5 51.887h-15.014v-36.886h15.014z" fill="#58f19d" data-original="#99e7fa" style="" class=""/><path d="m414.458 359.359c-4.142 0-7.5 3.358-7.5 7.5v51.886c0 4.142 3.358 7.5 7.5 7.5s7.5-3.358 7.5-7.5v-51.886c0-4.142-3.357-7.5-7.5-7.5z" fill="#58f19d" data-original="#99e7fa" style="" class=""/><path d="m384.444 359.359c-4.142 0-7.5 3.358-7.5 7.5v51.886c0 4.142 3.358 7.5 7.5 7.5s7.5-3.358 7.5-7.5v-51.886c0-4.142-3.358-7.5-7.5-7.5z" fill="#58f19d" data-original="#99e7fa" style="" class=""/><path d="m504.5 223.057h-30.014c-4.142 0-7.5 3.358-7.5 7.5v51.886c0 4.142 3.358 7.5 7.5 7.5h30.014c4.142 0 7.5-3.358 7.5-7.5v-51.886c0-4.142-3.358-7.5-7.5-7.5zm-7.5 51.885h-15.014v-36.886h15.014z" fill="#71e9a7" data-original="#4dd4f7" style="" class=""/><path d="m444.472 289.942c4.142 0 7.5-3.358 7.5-7.5v-51.886c0-4.142-3.358-7.5-7.5-7.5s-7.5 3.358-7.5 7.5v51.886c0 4.142 3.358 7.5 7.5 7.5z" fill="#71e9a7" data-original="#4dd4f7" style="" class=""/></g></g></g></svg>
