<?xml version="1.0"?>
<svg xmlns="http://www.w3.org/2000/svg" xmlns:xlink="http://www.w3.org/1999/xlink" xmlns:svgjs="http://svgjs.com/svgjs" version="1.1" width="512" height="512" x="0" y="0" viewBox="0 0 512 512" style="enable-background:new 0 0 512 512" xml:space="preserve" class=""><g><g xmlns="http://www.w3.org/2000/svg"><path d="m256 151c-57.897 0-105 47.103-105 105s47.103 105 105 105 105-47.103 105-105-47.103-105-105-105zm0 180c-41.355 0-75-33.645-75-75s33.645-75 75-75 75 33.645 75 75-33.645 75-75 75z" fill="#27cb71" data-original="#000000" style="" class=""/><path d="m467 90c24.813 0 45-20.187 45-45s-20.187-45-45-45-45 20.187-45 45c0 6.939 1.581 13.514 4.398 19.389l-43.118 43.118-10.608-10.607c-5.854-5.854-15.356-5.857-21.213 0l-15.132 15.132c-11.256-6.336-23.072-11.275-35.327-14.769v-21.263c0-8.284-6.716-15-15-15h-60c-8.284 0-15 6.716-15 15v21.264c-12.255 3.493-24.071 8.432-35.327 14.768l-15.132-15.132c-5.857-5.858-15.355-5.858-21.213 0l-10.607 10.607-43.119-43.118c2.817-5.875 4.398-12.45 4.398-19.389 0-24.813-20.187-45-45-45s-45 20.187-45 45 20.187 45 45 45c6.939 0 13.514-1.581 19.389-4.398l43.118 43.118-10.607 10.608c-5.855 5.855-5.857 15.356 0 21.213l15.132 15.132c-6.336 11.256-11.275 23.072-14.768 35.327h-21.264c-8.284 0-15 6.716-15 15v60c0 8.284 6.716 15 15 15h21.264c3.493 12.255 8.432 24.071 14.768 35.327l-15.132 15.132c-5.855 5.855-5.857 15.356 0 21.213l10.607 10.607-43.118 43.118c-5.875-2.816-12.45-4.397-19.389-4.397-24.813 0-45 20.187-45 45s20.187 45 45 45 45-20.187 45-45c0-6.939-1.581-13.514-4.398-19.389l43.118-43.118 10.607 10.607c5.857 5.858 15.355 5.857 21.213 0l15.132-15.132c11.256 6.336 23.071 11.275 35.327 14.769v21.263c0 8.284 6.716 15 15 15h60c8.284 0 15-6.716 15-15v-21.264c12.255-3.493 24.071-8.433 35.327-14.769l15.132 15.132c5.854 5.854 15.356 5.857 21.213 0l10.607-10.607 43.118 43.118c-2.815 5.876-4.396 12.451-4.396 19.39 0 24.813 20.187 45 45 45s45-20.187 45-45-20.187-45-45-45c-6.939 0-13.514 1.581-19.389 4.398l-43.118-43.118 10.607-10.607c5.858-5.858 5.858-15.355 0-21.213l-15.132-15.132c6.336-11.256 11.275-23.072 14.768-35.327h21.264c8.284 0 15-6.716 15-15v-60c0-8.284-6.716-15-15-15h-21.264c-3.493-12.255-8.432-24.071-14.768-35.327l15.132-15.132c5.858-5.858 5.858-15.355 0-21.213l-10.607-10.607 43.118-43.118c5.875 2.815 12.45 4.396 19.389 4.396zm0-60c8.271 0 15 6.729 15 15s-6.729 15-15 15-15-6.729-15-15 6.729-15 15-15zm-422 30c-8.271 0-15-6.729-15-15s6.729-15 15-15 15 6.729 15 15-6.729 15-15 15zm0 422c-8.271 0-15-6.729-15-15s6.729-15 15-15 15 6.729 15 15-6.729 15-15 15zm422-30c8.271 0 15 6.729 15 15s-6.729 15-15 15-15-6.729-15-15 6.729-15 15-15zm-64.032-211h18.032v30h-18.032c-7.129 0-13.273 5.018-14.698 12.004-3.415 16.75-10.063 32.662-19.761 47.293-3.942 5.947-3.149 13.848 1.896 18.894l12.875 12.875c-7.233 7.233-13.224 13.224-21.214 21.214l-12.875-12.875c-5.044-5.045-12.946-5.838-18.894-1.896-14.631 9.698-30.543 16.346-47.294 19.761-6.985 1.424-12.003 7.568-12.003 14.698v18.032h-30v-18.032c0-7.129-5.018-13.273-12.003-14.698-16.75-3.415-32.663-10.064-47.293-19.761-5.947-3.942-13.848-3.149-18.894 1.896l-12.875 12.875-21.214-21.214 12.875-12.875c5.045-5.045 5.838-12.947 1.896-18.894-9.698-14.631-16.346-30.543-19.761-47.293-1.424-6.986-7.568-12.004-14.698-12.004h-18.033v-30h18.032c7.129 0 13.273-5.018 14.698-12.004 3.415-16.75 10.063-32.662 19.761-47.293 3.942-5.947 3.149-13.848-1.896-18.894l-12.875-12.875 21.214-21.214 12.875 12.875c5.044 5.045 12.947 5.839 18.894 1.896 14.631-9.698 30.542-16.346 47.293-19.761 6.985-1.424 12.003-7.568 12.003-14.698v-18.032h30v18.032c0 7.129 5.018 13.274 12.003 14.698 16.751 3.415 32.663 10.064 47.294 19.761 5.948 3.942 13.85 3.149 18.894-1.896l12.875-12.875 21.214 21.214-12.875 12.875c-5.045 5.045-5.838 12.946-1.896 18.894 9.698 14.631 16.346 30.543 19.761 47.293 1.425 6.986 7.569 12.004 14.699 12.004z" fill="#27cb71" data-original="#000000" style="" class=""/></g></g></svg>
