<?xml version="1.0"?>
<svg xmlns="http://www.w3.org/2000/svg" xmlns:xlink="http://www.w3.org/1999/xlink" xmlns:svgjs="http://svgjs.com/svgjs" version="1.1" width="512" height="512" x="0" y="0" viewBox="0 0 74 74" style="enable-background:new 0 0 512 512" xml:space="preserve" class=""><g><path xmlns="http://www.w3.org/2000/svg" d="m39.825 72h-5.312a2.847 2.847 0 0 1 -2.691-1.914l-.756-2.24a1 1 0 1 1 1.894-.64l.754 2.233a.845.845 0 0 0 .8.561h5.312a.829.829 0 0 0 .792-.567l.762-2.23a1 1 0 0 1 1.892.646l-.762 2.234a2.843 2.843 0 0 1 -2.685 1.917z" fill="#20cb6d" data-original="#000000" style="" class=""/><path xmlns="http://www.w3.org/2000/svg" d="m41.847 68.523h-9.357a7.216 7.216 0 0 1 -7.208-7.207v-6.809a1 1 0 0 1 1-1h21.772a1 1 0 0 1 1 1v6.809a7.215 7.215 0 0 1 -7.207 7.207zm-14.565-13.016v5.809a5.213 5.213 0 0 0 5.208 5.207h9.357a5.213 5.213 0 0 0 5.207-5.207v-5.809z" fill="#20cb6d" data-original="#000000" style="" class=""/><path xmlns="http://www.w3.org/2000/svg" d="m47.984 55.507h-21.7a1 1 0 0 1 -.973-.773 25.185 25.185 0 0 0 -5.39-10.1 22.286 22.286 0 0 1 -5.235-15.4 22.532 22.532 0 0 1 20.9-21.286 22.153 22.153 0 0 1 16.714 6.02 22.336 22.336 0 0 1 1.874 30.558 25.2 25.2 0 0 0 -5.216 10.212 1 1 0 0 1 -.974.769zm-20.925-2h20.148a27.412 27.412 0 0 1 5.431-10.261 20.339 20.339 0 1 0 -31.19.1 27.748 27.748 0 0 1 5.611 10.161z" fill="#20cb6d" data-original="#000000" style="" class=""/><path xmlns="http://www.w3.org/2000/svg" d="m26.279 59.12a1 1 0 0 1 -.1-1.995l21.77-2.19a1 1 0 1 1 .2 1.99l-21.77 2.19a.865.865 0 0 1 -.1.005z" fill="#20cb6d" data-original="#000000" style="" class=""/><path xmlns="http://www.w3.org/2000/svg" d="m26.329 63.08a1 1 0 0 1 -.1-1.995l21.72-2.2a1 1 0 1 1 .2 1.99l-21.719 2.2a.882.882 0 0 1 -.101.005z" fill="#20cb6d" data-original="#000000" style="" class=""/><path xmlns="http://www.w3.org/2000/svg" d="m28.249 66.83a1 1 0 0 1 -.1-2l19.23-1.93a1 1 0 1 1 .2 1.99l-19.23 1.93a.865.865 0 0 1 -.1.01z" fill="#20cb6d" data-original="#000000" style="" class=""/><path xmlns="http://www.w3.org/2000/svg" d="m37 7.37a1 1 0 0 1 -1-1v-3.37a1 1 0 0 1 2 0v3.37a1 1 0 0 1 -1 1z" fill="#20cb6d" data-original="#000000" style="" class=""/><path xmlns="http://www.w3.org/2000/svg" d="m25.061 10.569a1 1 0 0 1 -.868-.5l-1.685-2.918a1 1 0 0 1 1.733-1l1.685 2.918a1 1 0 0 1 -.865 1.5z" fill="#20cb6d" data-original="#000000" style="" class=""/><path xmlns="http://www.w3.org/2000/svg" d="m16.317 19.31a1 1 0 0 1 -.5-.134l-2.917-1.684a1 1 0 0 1 1-1.733l2.918 1.685a1 1 0 0 1 -.5 1.866z" fill="#20cb6d" data-original="#000000" style="" class=""/><path xmlns="http://www.w3.org/2000/svg" d="m13.119 31.25h-3.369a1 1 0 0 1 0-2h3.369a1 1 0 0 1 0 2z" fill="#20cb6d" data-original="#000000" style="" class=""/><path xmlns="http://www.w3.org/2000/svg" d="m13.4 44.876a1 1 0 0 1 -.5-1.866l2.918-1.685a1 1 0 1 1 1 1.732l-2.918 1.685a.992.992 0 0 1 -.5.134z" fill="#20cb6d" data-original="#000000" style="" class=""/><path xmlns="http://www.w3.org/2000/svg" d="m48.939 10.569a1 1 0 0 1 -.865-1.5l1.685-2.918a1 1 0 0 1 1.733 1l-1.685 2.918a1 1 0 0 1 -.868.5z" fill="#20cb6d" data-original="#000000" style="" class=""/><path xmlns="http://www.w3.org/2000/svg" d="m57.683 19.31a1 1 0 0 1 -.5-1.866l2.917-1.685a1 1 0 0 1 1 1.733l-2.918 1.684a1 1 0 0 1 -.499.134z" fill="#20cb6d" data-original="#000000" style="" class=""/><path xmlns="http://www.w3.org/2000/svg" d="m64.25 31.25h-3.369a1 1 0 0 1 0-2h3.369a1 1 0 0 1 0 2z" fill="#20cb6d" data-original="#000000" style="" class=""/><path xmlns="http://www.w3.org/2000/svg" d="m60.6 44.876a.992.992 0 0 1 -.5-.134l-2.918-1.685a1 1 0 1 1 1-1.732l2.918 1.685a1 1 0 0 1 -.5 1.866z" fill="#20cb6d" data-original="#000000" style="" class=""/><path xmlns="http://www.w3.org/2000/svg" d="m39.38 47.706h-.006l-4.957-.031a1 1 0 0 1 -.988-.888l-.424-3.762a12.307 12.307 0 0 1 -1.8-.761l-2.989 2.324a1 1 0 0 1 -1.325-.087l-3.491-3.533a1 1 0 0 1 -.07-1.326l2.361-2.96a12.192 12.192 0 0 1 -.734-1.813l-3.763-.469a1 1 0 0 1 -.875-1l.031-4.958a1 1 0 0 1 .888-.987l3.762-.425a12.275 12.275 0 0 1 .757-1.8l-2.324-2.994a1 1 0 0 1 .087-1.324l3.533-3.489a1 1 0 0 1 1.326-.071l2.964 2.362a12.371 12.371 0 0 1 1.809-.735l.471-3.76a1 1 0 0 1 .993-.875h.006l4.957.031a1 1 0 0 1 .988.888l.433 3.766a12.275 12.275 0 0 1 1.8.757l2.993-2.325a1 1 0 0 1 1.325.088l3.482 3.533a1 1 0 0 1 .071 1.326l-2.362 2.964a12.256 12.256 0 0 1 .734 1.809l3.761.471a1 1 0 0 1 .875 1l-.031 4.957a1 1 0 0 1 -.888.988l-3.76.423a12.186 12.186 0 0 1 -.757 1.8l2.324 2.988a1 1 0 0 1 -.087 1.326l-3.533 3.489a1 1 0 0 1 -1.326.07l-2.959-2.361a12.362 12.362 0 0 1 -1.814.739l-.471 3.756a1 1 0 0 1 -.997.879zm-4.063-2.025 3.182.02.442-3.53a1 1 0 0 1 .745-.844 10.276 10.276 0 0 0 2.58-1.051 1 1 0 0 1 1.123.085l2.78 2.219 2.27-2.241-2.184-2.809a1 1 0 0 1 -.071-1.124 10.278 10.278 0 0 0 1.079-2.567 1 1 0 0 1 .853-.733l3.54-.4.02-3.182-3.535-.443a1 1 0 0 1 -.844-.744 10.285 10.285 0 0 0 -1.046-2.576 1 1 0 0 1 .084-1.122l2.22-2.786-2.242-2.27-2.813 2.187a1 1 0 0 1 -1.123.07 10.262 10.262 0 0 0 -2.563-1.078 1 1 0 0 1 -.733-.853l-.4-3.54-3.182-.02-.442 3.535a1 1 0 0 1 -.745.844 10.263 10.263 0 0 0 -2.576 1.046 1 1 0 0 1 -1.122-.085l-2.783-2.219-2.27 2.241 2.184 2.813a1 1 0 0 1 .07 1.123 10.293 10.293 0 0 0 -1.078 2.563 1 1 0 0 1 -.853.734l-3.54.4-.02 3.181 3.535.443a1 1 0 0 1 .844.744 10.287 10.287 0 0 0 1.046 2.581 1 1 0 0 1 -.085 1.123l-2.219 2.78 2.241 2.27 2.814-2.186a1 1 0 0 1 1.124-.071 10.268 10.268 0 0 0 2.567 1.083 1 1 0 0 1 .733.854zm1.683-6.346c-.2 0-.39-.006-.582-.02a8.3 8.3 0 0 1 -7.73-8.342 8.317 8.317 0 0 1 8.312-8.254h.056a8.308 8.308 0 0 1 -.056 16.616zm-6.312-8.35a6.317 6.317 0 0 0 6.271 6.35h.041a6.308 6.308 0 1 0 -6.311-6.35z" fill="#20cb6d" data-original="#000000" style="" class=""/></g></svg>
